<?xml version="1.0" encoding="UTF-8" standalone="no"?>
<svg
   xmlns:dc="http://purl.org/dc/elements/1.1/"
   xmlns:cc="http://creativecommons.org/ns#"
   xmlns:rdf="http://www.w3.org/1999/02/22-rdf-syntax-ns#"
   xmlns:svg="http://www.w3.org/2000/svg"
   xmlns="http://www.w3.org/2000/svg"
   xmlns:sodipodi="http://sodipodi.sourceforge.net/DTD/sodipodi-0.dtd"
   xmlns:inkscape="http://www.inkscape.org/namespaces/inkscape"
   height="32px"
   id="Layer_2"
   style="enable-background:new 0 0 32 32;"
   version="1.1"
   viewBox="0 0 32 32"
   width="32px"
   xml:space="preserve"
   inkscape:version="0.48.4 r9939"
   sodipodi:docname="instagram.svg"><metadata
     id="metadata25"><rdf:RDF><cc:Work
         rdf:about=""><dc:format>image/svg+xml</dc:format><dc:type
           rdf:resource="http://purl.org/dc/dcmitype/StillImage" /></cc:Work></rdf:RDF></metadata><defs
     id="defs23" /><sodipodi:namedview
     pagecolor="#ffffff"
     bordercolor="#666666"
     borderopacity="1"
     objecttolerance="10"
     gridtolerance="10"
     guidetolerance="10"
     inkscape:pageopacity="0"
     inkscape:pageshadow="2"
     inkscape:window-width="1920"
     inkscape:window-height="1017"
     id="namedview21"
     showgrid="false"
     inkscape:zoom="7.375"
     inkscape:cx="-5.1525424"
     inkscape:cy="16"
     inkscape:window-x="-8"
     inkscape:window-y="-8"
     inkscape:window-maximized="1"
     inkscape:current-layer="Layer_2" /><style
     type="text/css"
     id="style3">

	.st0{fill:none;stroke:#545454;stroke-width:0.5;stroke-miterlimit:10;}
	.st1{fill:none;stroke:#545454;stroke-miterlimit:10;}
	.st2{fill:#545454;}
	.st3{fill:none;stroke:#545454;stroke-linecap:round;stroke-miterlimit:10;}
	.st4{fill-rule:evenodd;clip-rule:evenodd;fill:none;stroke:#545454;stroke-width:0.5;stroke-miterlimit:10;}

</style><path
     class="st0"
     d="M16.354,12.522c2.022,0.01,3.655,1.66,3.645,3.683l1.461,0.007c0.014-2.829-2.269-5.135-5.099-5.149  L16.354,12.522z"
     id="path5"
     style="fill:none;fill-opacity:1;stroke:#ff4d4d;stroke-opacity:1" /><path
     style="fill:#ff4d4d;fill-opacity:1"
     inkscape:connector-curvature="0"
     id="path9"
     d="m 24.324,3.885 c 2.21,0 4,1.791 4,4 v 15.847 c 0,2.209 -1.79,4 -4,4 H 8.479 c -2.21,0 -4,-1.791 -4,-4 V 7.885 c 0,-2.209 1.79,-4 4,-4 h 15.845 m 0,-1 H 8.479 c -2.757,0 -5,2.243 -5,5 v 15.847 c 0,2.757 2.243,5 5,5 h 15.846 c 2.757,0 5,-2.243 5,-5 V 7.885 c -10e-4,-2.757 -2.244,-5 -5.001,-5 l 0,0 z"
     class="st2" /><circle
     class="st0"
     cx="16.617"
     cy="15.809"
     r="5.834"
     id="circle11"
     style="fill:none;fill-opacity:1;stroke:#ff4d4d;stroke-opacity:1" /><circle
     class="st0"
     cx="16.617"
     cy="15.809"
     r="7.259"
     id="circle13"
     style="fill:none;fill-opacity:0;stroke:#ff4d4d;stroke-opacity:1" /><line
     class="st0"
     x1="4.479"
     x2="10.26"
     y1="12.306"
     y2="12.306"
     id="line15"
     style="fill:#ff4d4d;fill-opacity:1;stroke:#ff4d4d;stroke-opacity:1" /><line
     class="st0"
     x1="22.974"
     x2="28.757"
     y1="12.306"
     y2="12.306"
     id="line17"
     style="fill:#ff4d4d;fill-opacity:1;stroke:#ff4d4d;stroke-opacity:1" /><path
     class="st0"
     d="M26.478,9.077c0,0.357-0.29,0.647-0.648,0.647h-2.567c-0.358,0-0.648-0.29-0.648-0.647V6.509  c0-0.358,0.29-0.648,0.648-0.648h2.567c0.358,0,0.648,0.29,0.648,0.648V9.077z"
     id="path19"
     style="fill:none;fill-opacity:1;stroke:#ff4d4d;stroke-opacity:1" /></svg>