<?xml version="1.0" encoding="UTF-8" standalone="no"?>
<svg
   xmlns:dc="http://purl.org/dc/elements/1.1/"
   xmlns:cc="http://creativecommons.org/ns#"
   xmlns:rdf="http://www.w3.org/1999/02/22-rdf-syntax-ns#"
   xmlns:svg="http://www.w3.org/2000/svg"
   xmlns="http://www.w3.org/2000/svg"
   xmlns:sodipodi="http://sodipodi.sourceforge.net/DTD/sodipodi-0.dtd"
   xmlns:inkscape="http://www.inkscape.org/namespaces/inkscape"
   height="32px"
   id="Layer_2"
   style="enable-background:new 0 0 32 32;"
   version="1.1"
   viewBox="0 0 32 32"
   width="32px"
   xml:space="preserve"
   inkscape:version="0.48.4 r9939"
   sodipodi:docname="twitter.svg"><metadata
     id="metadata15"><rdf:RDF><cc:Work
         rdf:about=""><dc:format>image/svg+xml</dc:format><dc:type
           rdf:resource="http://purl.org/dc/dcmitype/StillImage" /></cc:Work></rdf:RDF></metadata><defs
     id="defs13" /><sodipodi:namedview
     pagecolor="#ffffff"
     bordercolor="#666666"
     borderopacity="1"
     objecttolerance="10"
     gridtolerance="10"
     guidetolerance="10"
     inkscape:pageopacity="0"
     inkscape:pageshadow="2"
     inkscape:window-width="686"
     inkscape:window-height="480"
     id="namedview11"
     showgrid="false"
     inkscape:zoom="7.375"
     inkscape:cx="16"
     inkscape:cy="16"
     inkscape:window-x="0"
     inkscape:window-y="0"
     inkscape:window-maximized="0"
     inkscape:current-layer="Layer_2" /><style
     type="text/css"
     id="style3">

	.st0{fill:none;stroke:#545454;stroke-width:0.5;stroke-miterlimit:10;}
	.st1{fill:none;stroke:#545454;stroke-miterlimit:10;}
	.st2{fill:#545454;}
	.st3{fill:none;stroke:#545454;stroke-linecap:round;stroke-miterlimit:10;}
	.st4{fill-rule:evenodd;clip-rule:evenodd;fill:none;stroke:#545454;stroke-width:0.5;stroke-miterlimit:10;}

</style><path
     class="st2"
     d="m 20.58,8.313 c 1.157,0 2.202,0.488 2.936,1.27 0.917,-0.181 1.777,-0.515 2.555,-0.976 -0.301,0.938 -0.938,1.728 -1.769,2.225 0.813,-0.097 1.589,-0.313 2.311,-0.633 -0.54,0.807 -1.222,1.515 -2.008,2.082 0.008,0.173 0.012,0.346 0.012,0.521 0,5.315 -4.046,11.444 -11.444,11.444 -2.271,0 -4.386,-0.666 -6.166,-1.808 0.315,0.037 0.635,0.057 0.96,0.057 1.885,0 3.619,-0.644 4.995,-1.722 -1.76,-0.032 -3.245,-1.195 -3.757,-2.793 0.245,0.046 0.497,0.071 0.757,0.071 0.366,0 0.722,-0.049 1.06,-0.141 -1.84,-0.37 -3.227,-1.995 -3.227,-3.944 0,-0.017 0,-0.034 0,-0.051 0.542,0.302 1.163,0.482 1.822,0.503 -1.079,-0.721 -1.79,-1.952 -1.79,-3.348 0,-0.737 0.199,-1.428 0.545,-2.022 1.984,2.434 4.947,4.035 8.291,4.203 -0.069,-0.295 -0.104,-0.602 -0.104,-0.917 -0.001,-2.22 1.799,-4.021 4.021,-4.021 M 27.827,6.403 25.56,7.747 C 25.01,8.073 24.423,8.321 23.809,8.488 22.911,7.736 21.762,7.314 20.58,7.314 c -2.701,0 -4.911,2.143 -5.019,4.817 C 13.06,11.722 10.767,10.406 9.146,8.417 L 8.232,7.297 7.506,8.547 c -0.445,0.766 -0.681,1.639 -0.681,2.525 0,0.427 0.054,0.846 0.157,1.249 L 6.793,12.216 v 1.701 0.051 c 0,1.148 0.394,2.225 1.062,3.084 l 0.396,1.234 c 0.38,1.187 1.173,2.156 2.19,2.77 -0.783,0.291 -1.616,0.44 -2.477,0.44 -0.278,0 -0.562,-0.017 -0.843,-0.05 l -4.309,-0.507 3.651,2.342 c 2.006,1.286 4.324,1.966 6.706,1.966 7.79,0 12.444,-6.327 12.444,-12.444 0,-0.012 0,-0.024 0,-0.037 0.704,-0.574 1.317,-1.248 1.827,-2.01 l 1.919,-2.867 -2.344,1.038 c 10e-4,-0.005 0.003,-0.009 0.004,-0.014 l 0.808,-2.51 0,0 z"
     id="path9"
     inkscape:connector-curvature="0"
     style="fill:#ff4d4d;fill-opacity:1" /></svg>